<?xml version="1.0" encoding="UTF-8" standalone="no"?>
<!-- Created with Inkscape (http://www.inkscape.org/) -->
<svg fill="none" viewBox="0 0 124 22">
  <path fill="#306CE8" fill-rule="evenodd" d="M0 0h12.61l4.32 3.764c1.09.953 1.09 2.509 0 3.462l-4.32 3.764L0 0Z" clip-rule="evenodd"></path>
  <path fill="#2455B7" fill-rule="evenodd" d="m0 0 6.295 5.5L0 11V0ZM0 11l6.295 5.5L0 22V11Z" clip-rule="evenodd"></path>
  <path fill="#306CE8" fill-rule="evenodd" d="m0 22 12.6-11 4.32 3.764c1.09.953 1.09 2.509 0 3.462L12.6 21.99 0 22Z" clip-rule="evenodd"></path>
  <path fill="#fff" d="M30.615 7.39c1.472 0 2.73.54 3.772 1.646 1.043 1.078 1.564 2.424 1.564 4.01 0 1.586-.521 2.933-1.564 4.01-1.043 1.077-2.3 1.646-3.772 1.646-1.533 0-2.729-.509-3.557-1.556v1.257h-2.821V3.38h2.821v5.536c.828-1.018 2.024-1.526 3.557-1.526Zm-2.698 7.81c.582.57 1.288.839 2.177.839.89 0 1.595-.27 2.177-.838.583-.569.859-1.287.859-2.185 0-.897-.276-1.616-.859-2.184-.582-.569-1.318-.838-2.177-.838-.89 0-1.595.27-2.177.838-.583.568-.859 1.287-.859 2.184 0 .898.307 1.616.859 2.185ZM37.576 18.37V2.75h2.822v15.62h-2.822ZM51.959 17.054c-1.135 1.077-2.515 1.646-4.14 1.646-1.626 0-3.006-.539-4.11-1.646-1.103-1.107-1.686-2.424-1.686-4.01 0-1.586.552-2.932 1.687-4.01 1.103-1.077 2.483-1.645 4.109-1.645 1.625 0 3.005.538 4.14 1.645 1.134 1.078 1.686 2.424 1.686 4.01 0 1.556-.552 2.903-1.686 4.01Zm-6.256-1.915c.552.568 1.257.838 2.116.838.858 0 1.564-.27 2.116-.838.582-.569.858-1.257.858-2.125 0-.867-.276-1.556-.858-2.124-.583-.569-1.288-.838-2.116-.838-.828 0-1.564.27-2.116.838a2.921 2.921 0 0 0-.859 2.124c.03.868.307 1.586.859 2.125ZM60.484 18.67c-1.656 0-3.036-.538-4.14-1.615-1.104-1.078-1.656-2.424-1.656-4.04 0-1.586.552-2.933 1.656-4.04 1.104-1.077 2.484-1.616 4.14-1.616 1.073 0 2.054.24 2.913.748.89.51 1.533 1.167 1.993 2.005l-2.422 1.407c-.215-.45-.552-.778-1.012-1.048-.46-.269-.95-.389-1.503-.389-.859 0-1.564.27-2.116.838-.552.539-.828 1.257-.828 2.095 0 .838.276 1.526.828 2.095.552.538 1.257.838 2.116.838.583 0 1.073-.12 1.533-.39.46-.239.767-.598 1.012-1.047l2.454 1.377a5.513 5.513 0 0 1-2.055 2.034c-.89.51-1.87.748-2.913.748ZM76.644 18.373h-3.28l-4.018-4.848v4.848h-2.821V3.38h2.82v9.037l3.803-4.728h3.374l-4.416 5.266 4.538 5.417ZM83.79 7.42c1.563 0 2.912.54 4.016 1.616 1.104 1.078 1.656 2.424 1.656 3.98s-.552 2.903-1.656 3.98c-1.104 1.077-2.453 1.616-4.017 1.616-1.932 0-3.434-.778-4.446-2.364v2.095H77.9V3.38h1.442v6.374c1.012-1.556 2.484-2.334 4.446-2.334ZM80.6 16.04c.828.807 1.87 1.226 3.067 1.226 1.226 0 2.238-.419 3.066-1.226.828-.808 1.257-1.826 1.257-3.023s-.429-2.184-1.257-3.022c-.828-.808-1.87-1.227-3.067-1.227-1.226 0-2.238.419-3.066 1.227-.828.808-1.257 1.825-1.257 3.022 0 1.197.429 2.215 1.257 3.023ZM96.546 7.418c1.625 0 2.944.569 3.925 1.676 1.012 1.107 1.503 2.453 1.503 3.98 0 .15 0 .389-.031.658h-9.66c.154 1.077.614 1.945 1.411 2.573.798.629 1.779.958 2.944.958.828 0 1.564-.18 2.147-.509a3.406 3.406 0 0 0 1.38-1.317l1.288.719a5.346 5.346 0 0 1-1.963 1.795c-.828.449-1.778.658-2.852.658-1.717 0-3.128-.538-4.201-1.586-1.073-1.047-1.625-2.393-1.625-4.04 0-1.585.521-2.932 1.594-4.009 1.074-1.017 2.454-1.556 4.14-1.556Zm0 1.376c-1.134 0-2.085.33-2.852.988-.766.658-1.226 1.526-1.38 2.573h8.188c-.153-1.137-.582-2.005-1.35-2.633a3.967 3.967 0 0 0-2.606-.928ZM113.32 7.69h1.442v10.713h-1.442v-2.095c-1.012 1.556-2.484 2.364-4.446 2.364-1.564 0-2.913-.539-4.017-1.616-1.104-1.077-1.656-2.424-1.656-3.98s.552-2.902 1.656-3.98c1.104-1.077 2.453-1.616 4.017-1.616 1.932 0 3.434.778 4.446 2.364V7.69Zm-7.39 8.349c.828.808 1.871 1.226 3.066 1.226 1.227 0 2.239-.418 3.067-1.226.828-.808 1.257-1.826 1.257-3.023s-.429-2.184-1.257-3.022c-.828-.808-1.871-1.227-3.067-1.227-1.226 0-2.238.42-3.066 1.227-.828.808-1.257 1.825-1.257 3.022 0 1.197.429 2.215 1.257 3.023ZM123.256 9.034h-3.159v6.494c0 .598.123 1.017.338 1.257.245.239.582.389 1.042.389.46 0 1.043 0 1.748-.03V18.4c-1.533.24-2.698.12-3.465-.329-.767-.449-1.165-1.287-1.165-2.513V9.064h-2.3V7.688h2.3V5.114l1.441-.419v2.993h3.22v1.346Z"></path>
</svg>
